<svg width="6" height="6" viewBox="0 0 6 6" fill="none" xmlns="http://www.w3.org/2000/svg">
<path d="M0.229541 5.77049C-0.0764772 5.46447 -0.0764772 4.96832 0.229541 4.6623L4.6623 0.229559C4.96832 -0.0764584 5.46447 -0.0764586 5.77049 0.229558C6.0765 0.535575 6.0765 1.03173 5.77049 1.33774L1.33773 5.77049C1.03171 6.0765 0.535559 6.0765 0.229541 5.77049Z" fill="#224394"/>
<path d="M0.229513 0.229513C0.535531 -0.0765043 1.03168 -0.0765043 1.3377 0.229513L5.77046 4.66226C6.07648 4.96827 6.07648 5.46442 5.77046 5.77044C5.46444 6.07646 4.96829 6.07646 4.66227 5.77044L0.229514 1.3377C-0.0765044 1.03168 -0.0765046 0.53553 0.229513 0.229513Z" fill="#224394"/>
</svg>
